<?xml version="1.0" encoding="utf-8"?>
<!-- Generator: Adobe Illustrator 24.0.0, SVG Export Plug-In . SVG Version: 6.00 Build 0)  -->
<svg version="1.1" id="Camada_1" xmlns="http://www.w3.org/2000/svg" xmlns:xlink="http://www.w3.org/1999/xlink" x="0px" y="0px"
	 viewBox="0 0 1000 1000" style="enable-background:new 0 0 1000 1000;" xml:space="preserve">
<style type="text/css">
	.st0{fill:#EE4036;}
	.st1{fill:#FFFFFF;}
	.st2{font-family:'VAGRoundedStd-Light';}
	.st3{font-size:37.6322px;}
	.st4{fill:#FFFFFF;stroke:#FFFFFF;stroke-miterlimit:10;}
</style>
<path class="st0" d="M787.9,445.8c-14.9,17.4-103.4,121-143,182c-2.8,4.2-5.9,5.9-10.4,1.7c-11.8-10.8-16-23.3-10.8-48
	c5.6-25.7,17.4-64,28.8-96.6c-31.3,41-71.6,97.7-101.1,144.6c-2.4,3.8-5.9,5.6-10.4,1.7c-11.1-9.9-14.4-21.8-10.6-42.2
	c-22.9,22.8-54.1,42.6-83.1,43c-68,1.1-91.1-65.4-56.3-134.5c34.3-67.5,88.4-96.4,115.2-80.4c14.5,8.6,23,17.1,29.5,29.5
	c11.2,22.5-10.2,50.9-20.9,79.8c-2.1,6.4-4.3,8-11.2,4.3c-12.9-6.4-20.4-22.5-12.9-46.6c5.9-19.3,22-42.3,14.5-48.2
	c-9.1-7.5-49.3,26.8-73.4,75.5c-29.5,60.5-18.2,105,13.4,105.5c45,0.5,89.8-52.3,108.9-91.8c17.2-44.7,30.5-81.2,35.2-107.4
	c2.8-5.2,6.3-5.6,8.7-1.4c5.9,10.1,18.8,22.2,8.7,49c-11.5,31.3-29.3,77.4-55.6,126.2c32.3-52.8,85.9-125.8,121.7-169.3
	c2.4-2.8,5.9-3.8,8.7,0.3c7,10.1,8.7,18.8,0,45.2c-11.1,32.7-25.7,75.1-38.9,125.5c34-55.5,104-148.1,136.3-183.7
	C740.6,292.1,630.2,207.1,500,207.1c-161.8,0-292.9,131.1-292.9,292.9c0,32.9,5.4,64.5,15.4,94c24.8-61.8,92.1-186.1,121-226.4
	c4.4-5.8,8.7-5.3,11.6,1c5.8,12.1,7.8,32.5-12.1,68.4c-25.2,46.1-59.1,102.9-95,180.6c27.7-7.3,70.9-35,89.4-36.4
	c24.3-1.9,37.4,7.3,42.7,21.8c1.5,3.9,1.5,7.3-4.9,7.3c-24.3-0.5-97.4,27-125.5,34.2c-1.4,0.4-2.8,0.7-4,0.9
	c50.5,88.1,145.5,147.4,254.3,147.4c161.8,0,292.9-131.1,292.9-292.9C792.9,481.5,791.1,463.4,787.9,445.8z"/>
<text transform="matrix(1 0 0 1 367.8543 695.8127)" class="st1 st2 st3">LOW COST WEEKS</text>
<path class="st0" d="M787.9,445.8c-14.9,17.4-103.4,121-143,182c-2.8,4.2-5.9,5.9-10.4,1.7c-11.8-10.8-16-23.3-10.8-48
	c5.6-25.7,17.4-64,28.8-96.6c-31.3,41-71.6,97.7-101.1,144.6c-2.4,3.8-5.9,5.6-10.4,1.7c-11.1-9.9-14.4-21.8-10.6-42.2
	c-22.9,22.8-54.1,42.6-83.1,43c-68,1.1-91.1-65.4-56.3-134.5c34.3-67.5,88.4-96.4,115.2-80.4c14.5,8.6,23,17.1,29.5,29.5
	c11.2,22.5-10.2,50.9-20.9,79.8c-2.1,6.4-4.3,8-11.2,4.3c-12.9-6.4-20.4-22.5-12.9-46.6c5.9-19.3,22-42.3,14.5-48.2
	c-9.1-7.5-49.3,26.8-73.4,75.5c-29.5,60.5-18.2,105,13.4,105.5c45,0.5,89.8-52.3,108.9-91.8c17.2-44.7,30.5-81.2,35.2-107.4
	c2.8-5.2,6.3-5.6,8.7-1.4c5.9,10.1,18.8,22.2,8.7,49c-11.5,31.3-29.3,77.4-55.6,126.2c32.3-52.8,85.9-125.8,121.7-169.3
	c2.4-2.8,5.9-3.8,8.7,0.3c7,10.1,8.7,18.8,0,45.2c-11.1,32.7-25.7,75.1-38.9,125.5c34-55.5,104-148.1,136.3-183.7
	C740.6,292.1,630.2,207.1,500,207.1c-161.8,0-292.9,131.1-292.9,292.9c0,32.9,5.4,64.5,15.4,94c24.8-61.8,92.1-186.1,121-226.4
	c4.4-5.8,8.7-5.3,11.6,1c5.8,12.1,7.8,32.5-12.1,68.4c-25.2,46.1-59.1,102.9-95,180.6c27.7-7.3,70.9-35,89.4-36.4
	c24.3-1.9,37.4,7.3,42.7,21.8c1.5,3.9,1.5,7.3-4.9,7.3c-24.3-0.5-97.4,27-125.5,34.2c-1.4,0.4-2.8,0.7-4,0.9
	c50.5,88.1,145.5,147.4,254.3,147.4c161.8,0,292.9-131.1,292.9-292.9C792.9,481.5,791.1,463.4,787.9,445.8z"/>
<g>
	<path class="st4" d="M373.3,692.7h7.1c0.9,0,1.6,0.5,1.6,1.5s-0.7,1.5-1.6,1.5h-8.6c-1.2,0-1.8-0.8-1.8-1.8v-23.4
		c0-1.1,0.6-1.8,1.7-1.8c1,0,1.7,0.7,1.7,1.8V692.7z"/>
	<path class="st4" d="M395.4,668.8c7.6,0,11.7,6.7,11.7,13.6S403,696,395.4,696c-7.6,0-11.7-6.7-11.7-13.6S387.8,668.8,395.4,668.8z
		 M395.4,693.2c6,0,8.2-5.6,8.2-10.8s-2.2-10.8-8.2-10.8s-8.2,5.6-8.2,10.8S389.4,693.2,395.4,693.2z"/>
	<path class="st4" d="M422.3,670.1c0.3-1,0.9-1.3,1.7-1.3s1.4,0.3,1.7,1.3l6.2,21.6h0.1l3.5-21.4c0.2-1.1,0.8-1.5,1.8-1.5
		c0.9,0,1.5,0.7,1.5,1.5c0,0.4,0,0.9-0.2,1.7l-4.1,21.9c-0.2,1.2-0.7,2.2-2.4,2.2c-1.3,0-2.1-0.3-2.6-2.2l-5.5-19.6H424l-5.5,19.6
		c-0.5,1.8-1.3,2.2-2.6,2.2c-1.7,0-2.1-1-2.4-2.2l-4.1-21.9c-0.2-0.8-0.2-1.3-0.2-1.7c0-0.8,0.6-1.5,1.5-1.5c1,0,1.6,0.5,1.8,1.5
		l3.5,21.4h0.1L422.3,670.1z"/>
	<path class="st4" d="M462,693.2c4,0,5.8-2.4,7.2-2.4c0.8,0,1.3,0.6,1.3,1.5c0,1.7-3.8,3.7-8.5,3.7c-7.8,0-11.7-6.7-11.7-13.6
		s4-13.6,11.9-13.6c4.7,0,7.8,2.6,7.8,3.9c0,0.9-0.5,1.6-1.4,1.6c-1.5,0-2.3-2.6-6.4-2.6c-5.9,0-8.4,5.6-8.4,10.8
		S456.3,693.2,462,693.2z"/>
	<path class="st4" d="M484.3,668.8c7.6,0,11.7,6.7,11.7,13.6S492,696,484.3,696c-7.6,0-11.7-6.7-11.7-13.6S476.7,668.8,484.3,668.8z
		 M484.3,693.2c6,0,8.2-5.6,8.2-10.8s-2.2-10.8-8.2-10.8s-8.2,5.6-8.2,10.8S478.3,693.2,484.3,693.2z"/>
	<path class="st4" d="M512.8,671.9c0,0.8-0.6,1.5-1.4,1.5c-1.5,0-2-1.7-5.3-1.7c-2.4,0-4.3,1.5-4.3,3.8c0,5.9,12.7,3.1,12.7,12.1
		c0,4.4-3.2,8.5-9.1,8.5c-3.5,0-7.5-1.4-7.5-3.2c0-0.9,0.5-1.7,1.4-1.7c1.1,0,2.7,2.1,6.1,2.1c3.4,0,5.5-2.5,5.5-5.5
		c0-6.4-12.7-3.3-12.7-12c0-3.1,2.9-6.9,7.9-6.9C509.5,668.8,512.8,670.2,512.8,671.9z"/>
	<path class="st4" d="M522,672.1h-5c-0.9,0-1.6-0.5-1.6-1.5c0-1.1,0.7-1.5,1.6-1.5h13.3c0.9,0,1.6,0.5,1.6,1.5
		c0,1.1-0.7,1.5-1.6,1.5h-5v22.2c0,1.1-0.6,1.8-1.7,1.8s-1.7-0.7-1.7-1.8V672.1z"/>
	<path class="st4" d="M555.4,670.1c0.3-1,0.9-1.3,1.7-1.3c0.8,0,1.4,0.3,1.7,1.3l6.2,21.6h0.1l3.5-21.4c0.2-1.1,0.8-1.5,1.8-1.5
		c0.9,0,1.5,0.7,1.5,1.5c0,0.4,0,0.9-0.2,1.7l-4.1,21.9c-0.2,1.2-0.7,2.2-2.4,2.2c-1.3,0-2.1-0.3-2.6-2.2l-5.5-19.6h-0.1l-5.5,19.6
		c-0.5,1.8-1.3,2.2-2.6,2.2c-1.7,0-2.1-1-2.4-2.2l-4.1-21.9c-0.2-0.8-0.2-1.3-0.2-1.7c0-0.8,0.6-1.5,1.5-1.5c1,0,1.6,0.5,1.8,1.5
		l3.5,21.4h0.1L555.4,670.1z"/>
	<path class="st4" d="M578.3,692.7h8c0.9,0,1.6,0.5,1.6,1.5s-0.7,1.5-1.6,1.5h-9.5c-1.2,0-1.8-0.8-1.8-1.8v-23.2
		c0-1,0.5-1.8,1.8-1.8h9.5c0.9,0,1.6,0.5,1.6,1.5c0,1.1-0.7,1.5-1.6,1.5h-8v8.8h7.3c0.9,0,1.6,0.5,1.6,1.5s-0.7,1.5-1.6,1.5h-7.3
		V692.7z"/>
	<path class="st4" d="M595,692.7h8c0.9,0,1.6,0.5,1.6,1.5s-0.7,1.5-1.6,1.5h-9.5c-1.2,0-1.8-0.8-1.8-1.8v-23.2c0-1,0.5-1.8,1.8-1.8
		h9.5c0.9,0,1.6,0.5,1.6,1.5c0,1.1-0.7,1.5-1.6,1.5h-8v8.8h7.3c0.9,0,1.6,0.5,1.6,1.5s-0.7,1.5-1.6,1.5H595V692.7z"/>
	<path class="st4" d="M611.7,694.3c0,1.1-0.6,1.8-1.7,1.8c-1,0-1.7-0.7-1.7-1.8v-23.7c0-1.1,0.6-1.8,1.7-1.8c1,0,1.7,0.7,1.7,1.8
		v9.8l11.5-10.5c0.6-0.6,1.1-1.1,1.8-1.1c0.8,0,1.4,0.6,1.4,1.4s-0.3,1.2-0.7,1.5l-11,9.9l12,11.6c0.5,0.5,0.7,0.9,0.7,1.4
		c0,0.8-0.7,1.5-1.6,1.5c-0.5,0-0.9-0.1-1.6-0.7l-12.5-12.3V694.3z"/>
	<path class="st4" d="M643.4,671.9c0,0.8-0.6,1.5-1.4,1.5c-1.5,0-2-1.7-5.3-1.7c-2.4,0-4.3,1.5-4.3,3.8c0,5.9,12.7,3.1,12.7,12.1
		c0,4.4-3.2,8.5-9.1,8.5c-3.5,0-7.5-1.4-7.5-3.2c0-0.9,0.5-1.7,1.4-1.7c1.1,0,2.7,2.1,6.1,2.1c3.4,0,5.5-2.5,5.5-5.5
		c0-6.4-12.7-3.3-12.7-12c0-3.1,2.9-6.9,7.9-6.9C640.1,668.8,643.4,670.2,643.4,671.9z"/>
</g>
</svg>
